<svg width="127" height="105" viewBox="0 0 127 105" fill="none" xmlns="http://www.w3.org/2000/svg">
<mask id="mask0" mask-type="alpha" maskUnits="userSpaceOnUse" x="0" y="0" width="127" height="104">
<path fill-rule="evenodd" clip-rule="evenodd" d="M0 0.266228H126.746V104H0V0.266228Z" fill="white"/>
</mask>
<g mask="url(#mask0)">
<path fill-rule="evenodd" clip-rule="evenodd" d="M18.967 68.1197L13.5228 73.5672C12.0209 75.0785 12.0124 77.5034 13.5057 78.9891C14.999 80.4834 17.4225 80.4748 18.9244 78.9806L24.3686 73.5331C25.8705 72.0303 25.879 69.5968 24.3857 68.1026C22.8924 66.6084 20.4689 66.6169 18.967 68.1197ZM15.3916 46.3637C15.3916 44.2547 13.6678 42.547 11.543 42.547H3.8545C1.72117 42.547 -0.00256348 44.2547 -0.00256348 46.3637C-0.00256348 48.4812 1.72117 50.1889 3.8545 50.1889H11.543C13.6678 50.1889 15.3916 48.4812 15.3916 46.3637ZM46.1116 19.5273C31.2892 19.5273 19.2828 31.5494 19.2828 46.3637C19.2828 55.0046 23.43 62.6038 29.7617 67.5135C31.2977 66.0704 33.0982 64.9604 35.0182 64.0298C34.8561 63.2271 34.8305 62.3818 34.7622 61.5451C30.086 58.0614 26.9286 52.6565 26.9286 46.3637C26.9286 35.7674 35.5046 27.1692 46.1116 27.1692C54.662 27.1692 61.8214 32.8131 64.2961 40.549C65.943 41.2833 67.4534 42.2396 68.8358 43.3581C69.7148 41.881 70.7132 40.4978 71.8566 39.2341C68.7164 27.9035 58.4422 19.5273 46.1116 19.5273ZM78.6918 13.7638C77.1985 12.2696 74.7665 12.2781 73.2646 13.7894L67.8289 19.237C66.327 20.7312 66.3185 23.1561 67.8118 24.6504C69.2966 26.1446 71.7372 26.1361 73.2305 24.6333L78.6748 19.1943C80.1766 17.6915 80.1852 15.2581 78.6918 13.7638ZM18.967 24.6162C20.4689 26.119 22.8924 26.1275 24.3857 24.6333C25.879 23.1476 25.8705 20.7056 24.3686 19.2114L18.9244 13.7638C17.4225 12.2611 14.999 12.2525 13.5057 13.7468C12.0124 15.241 12.0209 17.6659 13.5228 19.1772L18.967 24.6162ZM46.1116 15.6594C48.2193 15.6594 49.926 13.9346 49.926 11.8085V4.11537C49.926 1.98076 48.2193 0.264526 46.1116 0.264526C44.0038 0.264526 42.2801 1.98076 42.2801 4.11537V11.8085C42.2801 13.9346 44.0038 15.6594 46.1116 15.6594Z" fill="#F8E71C"/>
</g>
<mask id="mask1" mask-type="alpha" maskUnits="userSpaceOnUse" x="0" y="0" width="127" height="104">
<path fill-rule="evenodd" clip-rule="evenodd" d="M0 0.266228H126.746V104H0" fill="white"/>
</mask>
<g mask="url(#mask1)">
<path fill-rule="evenodd" clip-rule="evenodd" d="M126.75 82.8707C126.75 94.5428 117.295 104.003 105.621 104.003C104.964 104.003 104.35 103.867 103.71 103.807V104.003H49.9499C39.3429 104.003 30.7499 95.4052 30.7499 84.7919C30.7499 76.7828 35.648 69.9264 42.6112 67.0404C42.3893 65.9475 42.2699 64.8204 42.2699 63.6592C42.2699 54.1132 50.0011 46.3688 59.5499 46.3688C64.0384 46.3688 68.0917 48.1277 71.1637 50.9369C74.5259 43.7133 81.7792 38.6842 90.2699 38.6842C101.935 38.6842 111.39 48.1533 111.39 59.8169C111.39 60.7476 111.236 61.6441 111.108 62.5492C120.102 64.9741 126.75 73.1113 126.75 82.8707Z" fill="#E4F2FC"/>
</g>
</svg>
