<svg width="25" height="21" viewBox="0 0 25 21" fill="none" xmlns="http://www.w3.org/2000/svg">
<mask id="mask0" mask-type="alpha" maskUnits="userSpaceOnUse" x="0" y="0" width="25" height="21">
<path fill-rule="evenodd" clip-rule="evenodd" d="M0 0.0532532H24.9499V20.8H0V0.0532532Z" fill="white"/>
</mask>
<g mask="url(#mask0)">
<path fill-rule="evenodd" clip-rule="evenodd" d="M3.73367 13.6239L2.66196 14.7135C2.36632 15.0157 2.36464 15.5007 2.6586 15.7978C2.95257 16.0967 3.42963 16.095 3.72527 15.7961L4.79698 14.7066C5.09262 14.4061 5.0943 13.9194 4.80034 13.6205C4.50637 13.3217 4.02931 13.3234 3.73367 13.6239ZM3.02984 9.27275C3.02984 8.85095 2.69052 8.50941 2.27225 8.50941H0.758762C0.338814 8.50941 -0.00050354 8.85095 -0.00050354 9.27275C-0.00050354 9.69626 0.338814 10.0378 0.758762 10.0378H2.27225C2.69052 10.0378 3.02984 9.69626 3.02984 9.27275ZM9.07708 3.90547C6.15929 3.90547 3.79582 6.3099 3.79582 9.27275C3.79582 11.0009 4.6122 12.5208 5.8586 13.5027C6.16097 13.2141 6.5154 12.9921 6.89335 12.806C6.86144 12.6454 6.8564 12.4764 6.84296 12.309C5.92244 11.6123 5.30091 10.5313 5.30091 9.27275C5.30091 7.1535 6.9891 5.43386 9.07708 5.43386C10.7602 5.43386 12.1696 6.56264 12.6567 8.10981C12.9809 8.25667 13.2782 8.44793 13.5504 8.67164C13.7234 8.37621 13.9199 8.09956 14.145 7.84683C13.5268 5.58072 11.5044 3.90547 9.07708 3.90547ZM15.4905 2.75278C15.1966 2.45393 14.7178 2.45564 14.4222 2.7579L13.3521 3.84741C13.0565 4.14626 13.0548 4.63124 13.3488 4.93009C13.6411 5.22893 14.1215 5.22723 14.4155 4.92667L15.4872 3.83887C15.7828 3.53832 15.7845 3.05163 15.4905 2.75278ZM3.73367 4.92326C4.02931 5.22381 4.50637 5.22552 4.80034 4.92667C5.0943 4.62953 5.09262 4.14113 4.79698 3.84229L3.72527 2.75278C3.42963 2.45223 2.95257 2.45052 2.6586 2.74936C2.36464 3.04821 2.36632 3.53319 2.66196 3.83546L3.73367 4.92326ZM9.07708 3.13189C9.49199 3.13189 9.82795 2.78693 9.82795 2.36172V0.823087C9.82795 0.396164 9.49199 0.0529175 9.07708 0.0529175C8.66217 0.0529175 8.32286 0.396164 8.32286 0.823087V2.36172C8.32286 2.78693 8.66217 3.13189 9.07708 3.13189Z" fill="#F8E71C"/>
</g>
<mask id="mask1" mask-type="alpha" maskUnits="userSpaceOnUse" x="0" y="0" width="25" height="21">
<path fill-rule="evenodd" clip-rule="evenodd" d="M0 0.0532532H24.9499V20.8H0" fill="white"/>
</mask>
<g mask="url(#mask1)">
<path fill-rule="evenodd" clip-rule="evenodd" d="M24.9508 16.5742C24.9508 18.9086 23.0896 20.8007 20.7916 20.8007C20.6623 20.8007 20.5413 20.7734 20.4153 20.7614V20.8007H9.83266C7.74468 20.8007 6.05313 19.081 6.05313 16.9584C6.05313 15.3566 7.01733 13.9853 8.38804 13.4081C8.34436 13.1895 8.32085 12.9641 8.32085 12.7318C8.32085 10.8226 9.84274 9.27377 11.7224 9.27377C12.606 9.27377 13.4039 9.62555 14.0086 10.1874C14.6705 8.74268 16.0983 7.73685 17.7697 7.73685C20.0659 7.73685 21.9271 9.63068 21.9271 11.9634C21.9271 12.1495 21.8969 12.3288 21.8717 12.5098C23.6422 12.9948 24.9508 14.6223 24.9508 16.5742Z" fill="#E4F2FC"/>
</g>
</svg>
