<svg width="20" height="20" viewBox="0 0 20 20" fill="none" xmlns="http://www.w3.org/2000/svg">
<path fill-rule="evenodd" clip-rule="evenodd" d="M3.60026 10.1004C3.60026 9.60308 3.19759 9.20041 2.70026 9.20041H0.900259C0.402926 9.20041 0.000259399 9.60308 0.000259399 10.1004C0.000259399 10.5964 0.402926 11.0004 0.900259 11.0004H2.70026C3.19759 11.0004 3.60026 10.5964 3.60026 10.1004Z" fill="#F8E71C"/>
<path fill-rule="evenodd" clip-rule="evenodd" d="M9.9004 3.80013C10.3977 3.80013 10.8004 3.39747 10.8004 2.90013V1.10013C10.8004 0.602801 10.3977 0.200134 9.9004 0.200134C9.40306 0.200134 9.0004 0.602801 9.0004 1.10013V2.90013C9.0004 3.39747 9.40306 3.80013 9.9004 3.80013Z" fill="#F8E71C"/>
<path fill-rule="evenodd" clip-rule="evenodd" d="M15.6276 5.64521L16.9009 4.37188C17.2516 4.02121 17.2516 3.45054 16.9009 3.09988C16.5503 2.74788 15.9796 2.74788 15.6276 3.09988L14.3556 4.37188C14.0036 4.72388 14.0036 5.29321 14.3556 5.64521C14.7063 5.99721 15.2756 5.99721 15.6276 5.64521Z" fill="#F8E71C"/>
<path fill-rule="evenodd" clip-rule="evenodd" d="M4.17253 5.64521C4.52453 5.99721 5.09387 5.99721 5.44587 5.64521C5.79653 5.29321 5.79653 4.72388 5.44587 4.37188L4.17253 3.09988C3.82053 2.74788 3.2512 2.74788 2.8992 3.09988C2.54853 3.45054 2.54853 4.02121 2.8992 4.37188L4.17253 5.64521Z" fill="#F8E71C"/>
<path fill-rule="evenodd" clip-rule="evenodd" d="M4.17253 14.5547L2.8992 15.828C2.54853 16.1787 2.54853 16.7493 2.8992 17.1C3.2512 17.452 3.82053 17.452 4.17253 17.1L5.44587 15.828C5.79653 15.476 5.79653 14.9067 5.44587 14.5547C5.09387 14.2027 4.52453 14.2027 4.17253 14.5547Z" fill="#F8E71C"/>
<mask id="mask0" mask-type="alpha" maskUnits="userSpaceOnUse" x="0" y="0" width="20" height="20">
<path fill-rule="evenodd" clip-rule="evenodd" d="M0 0.200012H19.8V20H0" fill="white"/>
</mask>
<g mask="url(#mask0)">
<path fill-rule="evenodd" clip-rule="evenodd" d="M18.9004 9.19986H17.1004C16.6031 9.19986 16.2004 9.60253 16.2004 10.0999C16.2004 10.5972 16.6031 10.9999 17.1004 10.9999H18.9004C19.3977 10.9999 19.8004 10.5972 19.8004 10.0999C19.8004 9.60253 19.3977 9.19986 18.9004 9.19986Z" fill="#F8E71C"/>
</g>
<path fill-rule="evenodd" clip-rule="evenodd" d="M9.9004 16.3997C9.40306 16.3997 9.0004 16.8037 9.0004 17.2997V19.0997C9.0004 19.5971 9.40306 19.9997 9.9004 19.9997C10.3977 19.9997 10.8004 19.5971 10.8004 19.0997V17.2997C10.8004 16.8037 10.3977 16.3997 9.9004 16.3997Z" fill="#F8E71C"/>
<path fill-rule="evenodd" clip-rule="evenodd" d="M15.6276 14.5547C15.2756 14.2027 14.7063 14.2027 14.3556 14.5547C14.0036 14.9067 14.0036 15.476 14.3556 15.828L15.6276 17.1C15.9796 17.452 16.5503 17.452 16.9009 17.1C17.2516 16.7493 17.2516 16.1787 16.9009 15.828L15.6276 14.5547Z" fill="#F8E71C"/>
<path fill-rule="evenodd" clip-rule="evenodd" d="M9.90039 14C7.74573 14 6.00039 12.2533 6.00039 10.1C6.00039 7.94666 7.74573 6.19999 9.90039 6.19999C12.0537 6.19999 13.8004 7.94666 13.8004 10.1C13.8004 12.2533 12.0537 14 9.90039 14ZM9.90039 4.39999C6.75239 4.39999 4.20039 6.95199 4.20039 10.1C4.20039 13.248 6.75239 15.8 9.90039 15.8C13.0484 15.8 15.6004 13.248 15.6004 10.1C15.6004 6.95199 13.0484 4.39999 9.90039 4.39999Z" fill="#F8E71C"/>
</svg>
